<svg xmlns="http://www.w3.org/2000/svg" width="32" height="32"><path fill="#263238" d="M20.14 30h-8.28C4.027 30 2 27.973 2 20.14v-8.28C2 4.027 4.027 2 11.86 2h8.279C27.973 2 30 4.027 30 11.86v8.28c0 7.833-2.027 9.86-9.86 9.86zM11.86 3C4.573 3 3 4.573 3 11.86v8.28C3 27.427 4.573 29 11.86 29h8.279c7.287 0 8.86-1.573 8.86-8.86v-8.28C29 4.573 27.427 3 20.14 3h-8.28z"/><path fill="#263238" d="M25.219 22.876h-2.188c-.81 0-1.216-.453-1.891-1.203-.266-.295-.592-.658-1.025-1.092-1.194-1.151-1.7-1.267-1.886-1.267a1.83 1.83 0 00-.013.249v1.962c0 1.121-.824 1.351-2.063 1.351-2.596 0-5.244-1.577-7.084-4.218-2.65-3.715-3.543-6.735-3.543-7.542 0-.711.456-1.119 1.25-1.119h2.188c.96 0 1.253.613 1.452 1.187.985 2.871 2.437 5.01 3.041 5.437.005-.065.009-.151.009-.267v-3.222c-.041-.729-.283-1.029-.497-1.293-.175-.216-.373-.461-.373-.839 0-.482.404-1.003 1.057-1.003h3.438c.514 0 1.125.226 1.125 1.304v4.335l.002.055c.113-.078.274-.225.505-.455 1.479-1.655 2.569-4.284 2.58-4.311.261-.61.749-.929 1.415-.929h2.188c.473 0 .818.142 1.025.42.138.185.27.514.116 1.028-.282 1.299-2.737 4.783-3.017 5.176-.021.035-.106.173-.117.22.003 0 .021.049.104.157.101.139.35.383.591.62.298.292.635.623.903.94 1.18 1.327 1.743 2.122 1.94 2.734.164.566.019.922-.133 1.123-.155.212-.473.462-1.099.462zm-6.93-4.563c.452 0 1.106.185 2.526 1.554.456.456.794.831 1.069 1.137.654.729.813.872 1.146.872h2.188c.207 0 .291-.047.302-.06 0 0 .025-.061-.024-.23-.184-.572-1.026-1.569-1.739-2.372-.257-.304-.57-.61-.848-.881-.309-.302-.552-.541-.691-.735-.498-.641-.303-1.072-.018-1.53.741-1.046 2.669-3.909 2.88-4.872a.757.757 0 00.036-.185c-.018.002-.085-.013-.21-.013h-2.188c-.299 0-.407.116-.492.315-.044.107-1.162 2.806-2.776 4.611-.514.515-.877.839-1.393.839-.405 0-.841-.353-.841-1.126v-4.335a.883.883 0 00-.034-.301c-.011.004-.038-.002-.091-.003h-3.438c-.049.038.037.144.094.214.263.325.659.816.719 1.894l.001 3.25c0 .399 0 1.335-.906 1.335-1.283 0-3.199-3.589-4.089-6.179-.178-.513-.261-.513-.507-.513H6.777c-.196 0-.253.038-.254.038.004.431.624 3.204 3.364 7.046 1.656 2.377 3.997 3.794 6.267 3.794 1.063 0 1.063-.147 1.063-.351v-1.962c0-.619.127-1.251 1.072-1.251z"/></svg>